Coordinates
version=1
nRows=13
nColumns=40
inDegrees=yes

Units are S.I. units (second, meters, Newtons, ...)
Angles are in degrees.

endheader
time	pelvis_tilt	pelvis_list	pelvis_rotation	pelvis_tx	pelvis_ty	pelvis_tz	hip_flexion_r	hip_adduction_r	hip_rotation_r	knee_angle_r	knee_angle_r_beta	ankle_angle_r	subtalar_angle_r	mtp_angle_r	hip_flexion_l	hip_adduction_l	hip_rotation_l	knee_angle_l	knee_angle_l_beta	ankle_angle_l	subtalar_angle_l	mtp_angle_l	lumbar_extension	lumbar_bending	lumbar_rotation	arm_flex_r	arm_add_r	arm_rot_r	elbow_flex_r	pro_sup_r	wrist_flex_r	wrist_dev_r	arm_flex_l	arm_add_l	arm_rot_l	elbow_flex_l	pro_sup_l	wrist_flex_l	wrist_dev_l
     11.34750000	     -2.60485049	     -4.17916339	     -1.44382050	      1.08139246	      0.92011297	      0.48808790	     22.10006549	      0.47578364	    -13.73902707	     24.83688390	     24.83688390	      7.25162598	     -3.92604204	     -2.80664621	      1.87324290	     -9.88879546	     -6.48785951	     41.06556208	     41.06556208	     11.16581029	    -12.89002772	    -11.19360985	     -8.55450397	      6.66911701	      1.75630704	    -14.13884908	    -11.80116766	    -14.42179167	     20.11192691	     47.18605242	      0.00000000	      0.00000000	     13.94914884	    -14.62245000	    -11.48793567	     85.04063687	     47.80442767	      0.00000000	      0.00000000
     11.35914286	     -2.61635109	     -4.20816784	     -1.04372919	      1.08121473	      0.92202852	      0.49000200	     21.01902182	      0.48488760	    -14.56809615	     24.13504546	     24.13504546	      7.82717284	     -2.76660812	     -2.84856059	      3.96639055	    -10.18584439	     -5.47596169	     44.96055179	     44.96055179	      9.51693449	    -14.96116486	     -9.48763266	     -8.57351439	      6.71640102	      1.84912568	    -12.42432925	    -11.86995931	    -13.93118276	     20.44521346	     47.14195594	      0.00000000	      0.00000000	     13.14053171	    -13.97915865	    -11.13165928	     83.57686668	     47.76386679	      0.00000000	      0.00000000
     11.37078571	     -2.62907607	     -4.35231595	     -0.65522388	      1.08086692	      0.92382732	      0.49193507	     19.91217173	      0.69448324	    -15.28588020	     23.33028557	     23.33028557	      8.31587792	     -1.83712332	     -2.62076294	      6.34191088	    -10.69206478	     -4.72816738	     49.23547060	     49.23547060	     10.13997435	    -15.24111768	     -3.29111227	     -8.59073430	      6.86007877	      2.18510205	    -10.90381216	    -12.05573635	    -11.79658796	     21.01590496	     46.92977385	      0.00000000	      0.00000000	     12.49937474	    -13.29224588	    -10.40788433	     81.83806563	     47.75229955	      0.00000000	      0.00000000
     11.38242857	     -2.62892810	     -4.46277996	     -0.25538592	      1.08033778	      0.92554469	      0.49369101	     18.78397996	      0.88905948	    -15.99041843	     22.45422687	     22.45422687	      8.60381298	     -0.99231827	     -2.75842268	      8.63002378	    -11.10555556	     -4.06994223	     52.93310149	     52.93310149	     10.08709991	    -16.14441253	      0.87707757	     -8.63798416	      6.98243020	      2.51114744	     -9.38427044	    -12.35062965	    -10.25570611	     21.95792621	     46.76762714	      0.00000000	      0.00000000	     11.85251910	    -12.59830279	     -9.65645190	     79.88583457	     47.71944384	      0.00000000	      0.00000000
     11.39407143	     -2.61250524	     -4.58576127	      0.16075551	      1.07970470	      0.92713790	      0.49534688	     17.66772502	      1.08278856	    -16.76747096	     21.62979196	     21.62979196	      8.86139295	     -0.01062219	     -2.89067442	     10.83727311	    -11.56861542	     -3.60332803	     56.12917653	     56.12917653	      9.78793259	    -17.07992705	      3.47559464	     -8.69554892	      7.11509852	      2.68929567	     -7.54601827	    -12.57413555	     -9.55900476	     22.65180716	     46.69721119	      0.00000000	      0.00000000	     11.17557948	    -11.97501426	     -9.00461830	     77.60247655	     47.65297103	      0.00000000	      0.00000000
     11.40571429	     -2.57162637	     -4.73901621	      0.58815022	      1.07891018	      0.92861350	      0.49697982	     16.53148941	      1.38300132	    -17.33472425	     20.75061290	     20.75061290	      9.07218126	      0.60826884	     -2.92228044	     13.05199356	    -12.08820611	     -3.24225399	     58.99993363	     58.99993363	     10.01832263	    -17.70023139	      6.36212383	     -8.77263098	      7.25958314	      2.90794069	     -5.60484270	    -12.80885994	     -8.87746661	     23.35840064	     46.62953163	      0.00000000	      0.00000000	     10.48338771	    -11.46054216	     -8.13318893	     75.16606903	     47.56540624	      0.00000000	      0.00000000
     11.41735714	     -2.60246576	     -4.95707524	      1.04786955	      1.07792500	      0.92980468	      0.49856890	     15.51856177	      1.77721970	    -17.83447966	     19.90707813	     19.90707813	      9.23109032	      1.03109457	     -2.84375433	     15.29828348	    -12.74819624	     -3.02609337	     61.34570260	     61.34570260	      9.83303857	    -18.25119104	      7.10665417	     -8.80583069	      7.44406442	      3.04536643	     -3.62323997	    -13.01350267	     -8.68783450	     24.13556085	     46.59986994	      0.00000000	      0.00000000	      9.43030354	    -10.94388742	     -7.51419600	     73.57629686	     47.49149731	      0.00000000	      0.00000000
     11.42900000	     -2.44568157	     -5.00312307	      1.45545425	      1.07699717	      0.93133026	      0.50004718	     14.28559896	      1.99315319	    -18.29723791	     19.05814028	     19.05814028	      9.48206838	      1.77510944	     -2.94003077	     17.24667247	    -13.10709077	     -2.84352994	     63.20459968	     63.20459968	     10.68079039	    -18.50484738	     10.12950355	     -8.89949188	      7.46687063	      3.04453565	     -1.10689600	    -13.23296634	     -7.96368354	     24.59491986	     46.54738492	      0.00000000	      0.00000000	      9.11791998	    -10.54994357	     -6.44987384	     69.53029709	     47.35749577	      0.00000000	      0.00000000
     11.44064286	     -2.48400929	     -5.21147439	      1.92767128	      1.07557781	      0.93218974	      0.50135256	     13.42599279	      2.35524773	    -18.83841418	     18.39541988	     18.39541988	      9.53595143	      2.02965147	     -2.90445422	     19.53968530	    -13.61690141	     -2.57921460	     64.79503522	     64.79503522	     11.38171084	    -18.66831500	     11.71330451	     -8.99544181	      7.66035266	      3.37627109	      0.91132654	    -13.58397169	     -7.43409483	     25.02920488	     46.50827707	      0.00000000	      0.00000000	      8.47457197	    -10.01714280	     -5.50125896	     66.79605685	     47.24846179	      0.00000000	      0.00000000
     11.45228571	     -2.50929425	     -5.33730707	      2.35751422	      1.07415551	      0.93299609	      0.50260890	     12.56089779	      2.64985016	    -19.23584351	     17.75284519	     17.75284519	      9.70930933	      2.38002349	     -2.95097994	     21.67463942	    -13.94926353	     -2.36832814	     65.78911053	     65.78911053	     12.07363393	    -18.75713982	     13.12346409	     -8.97840646	      7.75319529	      3.73033801	      3.17357819	    -13.92416500	     -6.77967290	     25.28380713	     46.47156461	      0.00000000	      0.00000000	      8.12574041	     -9.47148170	     -4.45688370	     63.26084552	     47.12527893	      0.00000000	      0.00000000
     11.46392857	     -2.51111980	     -5.46877279	      2.79754155	      1.07265785	      0.93374814	      0.50377869	     11.63916903	      2.99029501	    -19.54532237	     17.01775251	     17.01775251	      9.87143629	      2.61374611	     -2.87147882	     23.68260361	    -14.22798086	     -2.14663274	     66.22139615	     66.22139615	     12.29900802	    -18.79253033	     13.24633800	     -9.07502382	      7.83614455	      3.44415807	      5.69083700	    -14.06348299	     -6.65499207	     26.20393642	     46.44692320	      0.00000000	      0.00000000	      6.95633757	     -9.30292252	     -3.82753046	     60.91832220	     47.03672951	      0.00000000	      0.00000000
     11.47557143	     -2.50706169	     -5.50185563	      3.15025286	      1.07108624	      0.93443900	      0.50477771	     10.78745728	      3.20119137	    -19.82749102	     16.42937315	     16.42937315	     10.02355424	      2.84393677	     -2.94972597	     25.51656616	    -14.30308736	     -2.03612261	     66.13135032	     66.13135032	     12.66239771	    -18.80178420	     13.73676061	     -9.09574554	      7.83534638	      3.86759519	      8.19974892	    -14.46596246	     -6.03584517	     26.03792183	     46.43552716	      0.00000000	      0.00000000	      7.00684567	     -8.67290488	     -2.74980539	     56.05717565	     46.89280890	      0.00000000	      0.00000000
     11.48721429	     -2.52504406	     -5.54383405	      3.49552319	      1.06943953	      0.93495004	      0.50566907	      9.94963811	      3.44856980	    -20.00600498	     15.79196163	     15.79196163	     10.19333760	      2.97288004	     -2.99804196	     27.25888833	    -14.30092053	     -1.89058665	     65.56043348	     65.56043348	     12.73602885	    -18.75598991	     13.70003103	     -9.14491275	      7.83902499	      3.94485567	     10.74502063	    -14.75070562	     -5.69646719	     26.51994691	     46.41665576	      0.00000000	      0.00000000	      6.48479918	     -8.29170711	     -1.87914970	     52.21793010	     46.77173394	      0.00000000	      0.00000000
